<svg width="31" height="32" viewBox="0 0 31 32" fill="none" xmlns="http://www.w3.org/2000/svg">
<path d="M23.9863 12.4258L24.6926 11.7182L22.3808 9.43049V5.96847H21.4043V9.83123L23.9863 12.4258ZM8.43125 16.683H6.02685H19.0519H8.43125ZM7.21257 27.3798C7.03249 27.3798 6.88158 27.3189 6.75984 27.1972C6.6381 27.0754 6.57723 26.9249 6.57723 26.7457V24.3413C6.07335 24.1409 6.69774 24.0648 5.89501 23.5753C5.93181 23.3204 5.2609 22.4509 5.2609 21.8202V18.5028L5.22412 15.3324V9.83123C5.22412 8.47009 5.94062 7.66947 7.50551 7.0819C9.07039 6.49432 11.1324 5.82136 14.7542 5.82136C14.6426 6.02342 14.539 6.2259 14.4435 6.4288C14.348 6.63171 14.3687 6.1942 14.285 6.63805C11.8324 5.98495 9.40053 7.06228 8.13831 7.37171C6.87609 7.68029 6.25935 8.39527 6.02685 9.04117H13.8183C13.8039 9.25253 13.7968 9.46389 13.7968 9.67525C13.7968 9.8866 13.7879 9.61987 13.8183 9.83123H5.89501L5.89497 15.9665H17.0724C17.3987 16.2303 17.7474 16.4691 18.1186 16.683C18.4897 16.8969 18.6335 16.5291 19.0519 16.683H6.02685L5.89497 21.0391C5.89497 21.7365 6.14352 22.3338 6.64063 22.8309C7.13775 23.3281 7.73462 24.1767 8.43125 24.1758L18.9429 24.2693C19.6404 24.2693 20.7627 23.6201 21.2598 23.1239C21.7569 22.6276 22.0105 21.7374 22.0097 21.0391V17.7C21.7983 17.7 22.2211 17.7305 22.0097 17.7C22.2211 17.7 22.1695 17.7144 22.3808 17.7V21.1849C22.3808 21.8156 22.1817 22.4497 21.7835 23.0871C21.3853 23.7229 20.7525 24.0689 20.2478 24.2693V26.7457C20.2478 26.9257 20.2478 27.0806 20.2478 27.1972C20.1269 27.3181 19.9764 27.3789 19.7963 27.3798H19.5034C19.3233 27.3798 19.4785 26.8674 19.3576 26.7457C19.3584 26.9249 19.6632 26.7457 19.3576 26.7457L19.3576 25.6602V24.8435H8.13831L7.50551 25.6602V26.7457C6.87271 26.7457 7.05532 26.1277 7.50551 26.5791C7.38377 26.7 7.39846 27.2944 7.39846 27.3798H7.21257ZM21.8837 14.6984C20.4769 14.6984 19.2815 14.2063 18.2974 13.2222C17.3125 12.2373 16.82 11.0355 16.82 9.61691C16.82 8.21435 17.3116 7.01976 18.2949 6.03314C19.2781 5.04653 20.4807 4.55322 21.9027 4.55322C23.3087 4.55322 24.5041 5.04568 25.489 6.03061C26.4739 7.01469 26.9664 8.21308 26.9664 9.62579C26.9664 11.0385 26.4706 12.2373 25.4789 13.2222C24.4872 14.2072 23.2896 14.6992 21.8837 14.6984ZM9.07166 21.8202C9.46563 21.8202 9.79873 21.682 10.071 21.4056C10.344 21.1291 10.4806 20.7935 10.4806 20.3986C10.4806 20.0047 10.3423 19.6716 10.0659 19.3994C9.78943 19.1263 9.45422 18.9897 9.06025 18.9897C8.66543 18.9897 8.33149 19.128 8.05842 19.4044C7.78704 19.6809 7.65134 20.0161 7.65134 20.4101C7.65134 20.8049 7.78915 21.1388 8.06476 21.4119C8.34121 21.6841 8.67685 21.8202 9.07166 21.8202ZM17.9487 21.8202C18.3426 21.8202 18.6757 21.682 18.9479 21.4056C19.221 21.1291 19.3576 20.7935 19.3576 20.3986C19.3576 20.0047 19.2193 19.6716 18.9429 19.3994C18.6664 19.1263 18.3312 18.9897 17.9372 18.9897C17.5424 18.9897 17.2085 19.128 16.9354 19.4044C16.664 19.6809 16.5283 20.0161 16.5283 20.4101C16.5283 20.8049 16.6661 21.1388 16.9418 21.4119C17.2182 21.6841 17.5534 21.8202 17.9474 21.8202" fill="black"/>
</svg>
