<svg width="28" height="28" viewBox="0 0 28 28" fill="none" xmlns="http://www.w3.org/2000/svg">
<path d="M2.91064 13.5221C2.91064 9.56897 2.91064 7.59189 4.17508 6.36434C5.43951 5.13679 7.47317 5.13574 11.5416 5.13574H15.857C19.9255 5.13574 21.9602 5.13574 23.2235 6.36434C24.4869 7.59294 24.488 9.56897 24.488 13.5221V15.6187C24.488 19.5718 24.488 21.5488 23.2235 22.7764C21.9591 24.0039 19.9255 24.005 15.857 24.005H11.5416C7.47317 24.005 5.43843 24.005 4.17508 22.7764C2.91172 21.5478 2.91064 19.5718 2.91064 15.6187V13.5221Z" stroke="black" stroke-width="0.649852"/>
<path opacity="0.5" d="M8.30461 5.13591V3.56348M19.0933 5.13591V3.56348M3.44971 10.3774H23.9482" stroke="black" stroke-width="0.649852" stroke-linecap="round"/>
<path d="M20.1725 18.7639C20.1725 19.0419 20.0588 19.3086 19.8565 19.5052C19.6542 19.7018 19.3797 19.8122 19.0936 19.8122C18.8075 19.8122 18.5331 19.7018 18.3307 19.5052C18.1284 19.3086 18.0147 19.0419 18.0147 18.7639C18.0147 18.4859 18.1284 18.2193 18.3307 18.0227C18.5331 17.8261 18.8075 17.7156 19.0936 17.7156C19.3797 17.7156 19.6542 17.8261 19.8565 18.0227C20.0588 18.2193 20.1725 18.4859 20.1725 18.7639ZM20.1725 14.5708C20.1725 14.8488 20.0588 15.1154 19.8565 15.312C19.6542 15.5086 19.3797 15.619 19.0936 15.619C18.8075 15.619 18.5331 15.5086 18.3307 15.312C18.1284 15.1154 18.0147 14.8488 18.0147 14.5708C18.0147 14.2927 18.1284 14.0261 18.3307 13.8295C18.5331 13.6329 18.8075 13.5225 19.0936 13.5225C19.3797 13.5225 19.6542 13.6329 19.8565 13.8295C20.0588 14.0261 20.1725 14.2927 20.1725 14.5708ZM14.7781 18.7639C14.7781 19.0419 14.6645 19.3086 14.4621 19.5052C14.2598 19.7018 13.9854 19.8122 13.6993 19.8122C13.4131 19.8122 13.1387 19.7018 12.9364 19.5052C12.7341 19.3086 12.6204 19.0419 12.6204 18.7639C12.6204 18.4859 12.7341 18.2193 12.9364 18.0227C13.1387 17.8261 13.4131 17.7156 13.6993 17.7156C13.9854 17.7156 14.2598 17.8261 14.4621 18.0227C14.6645 18.2193 14.7781 18.4859 14.7781 18.7639ZM14.7781 14.5708C14.7781 14.8488 14.6645 15.1154 14.4621 15.312C14.2598 15.5086 13.9854 15.619 13.6993 15.619C13.4131 15.619 13.1387 15.5086 12.9364 15.312C12.7341 15.1154 12.6204 14.8488 12.6204 14.5708C12.6204 14.2927 12.7341 14.0261 12.9364 13.8295C13.1387 13.6329 13.4131 13.5225 13.6993 13.5225C13.9854 13.5225 14.2598 13.6329 14.4621 13.8295C14.6645 14.0261 14.7781 14.2927 14.7781 14.5708ZM9.38381 18.7639C9.38381 19.0419 9.27014 19.3086 9.06781 19.5052C8.86549 19.7018 8.59107 19.8122 8.30494 19.8122C8.01881 19.8122 7.74439 19.7018 7.54207 19.5052C7.33974 19.3086 7.22607 19.0419 7.22607 18.7639C7.22607 18.4859 7.33974 18.2193 7.54207 18.0227C7.74439 17.8261 8.01881 17.7156 8.30494 17.7156C8.59107 17.7156 8.86549 17.8261 9.06781 18.0227C9.27014 18.2193 9.38381 18.4859 9.38381 18.7639ZM9.38381 14.5708C9.38381 14.8488 9.27014 15.1154 9.06781 15.312C8.86549 15.5086 8.59107 15.619 8.30494 15.619C8.01881 15.619 7.74439 15.5086 7.54207 15.312C7.33974 15.1154 7.22607 14.8488 7.22607 14.5708C7.22607 14.2927 7.33974 14.0261 7.54207 13.8295C7.74439 13.6329 8.01881 13.5225 8.30494 13.5225C8.59107 13.5225 8.86549 13.6329 9.06781 13.8295C9.27014 14.0261 9.38381 14.2927 9.38381 14.5708Z" fill="black"/>
</svg>
